<?xml version="1.0" encoding="utf-8"?>
<svg xmlns="http://www.w3.org/2000/svg">
<symbol id='add' viewBox="0 0 292 292" fill="none">
<g clip-path="url(#a)"><path d="M125.167 166.833H21C15.0973 166.833 10.1528 164.833 6.1667 160.833C2.18059 156.833 0.180587 151.889 0.166698 146C0.152809 140.111 2.15281 135.167 6.1667 131.167C10.1806 127.167 15.125 125.167 21 125.167H125.167V20.9999C125.167 15.0971 127.167 10.1527 131.167 6.16658C135.167 2.18047 140.111 0.180465 146 0.166576C151.889 0.152687 156.84 2.15269 160.854 6.16658C164.868 10.1805 166.861 15.1249 166.833 20.9999V125.167H271C276.903 125.167 281.854 127.167 285.854 131.167C289.854 135.167 291.847 140.111 291.833 146C291.819 151.889 289.819 156.84 285.833 160.854C281.847 164.868 276.903 166.861 271 166.833H166.833V271C166.833 276.903 164.833 281.854 160.833 285.854C156.833 289.854 151.889 291.847 146 291.833C140.111 291.819 135.167 289.819 131.167 285.833C127.167 281.847 125.167 276.903 125.167 271V166.833Z" fill="currentColor" /></g><defs><clipPath id="a"><rect width="292" height="292" fill="white" /></clipPath></defs>
</symbol>
<symbol id='arrow' viewBox="0 0 566 566" fill="none">
<path d="M382.286 377.333H183.714C175.875 377.345 168.192 375.136 161.556 370.962C154.92 366.788 149.602 360.821 146.217 353.75C142.254 345.36 140.728 336.026 141.812 326.812C142.896 317.597 146.547 308.872 152.348 301.631L251.634 181.356C255.53 176.86 260.348 173.255 265.759 170.783C271.171 168.312 277.051 167.034 283 167.034C288.949 167.034 294.829 168.312 300.24 170.783C305.652 173.255 310.469 176.86 314.366 181.356L413.652 301.631C419.453 308.872 423.104 317.597 424.188 326.812C425.272 336.026 423.746 345.36 419.783 353.75C416.398 360.821 411.08 366.788 404.444 370.962C397.808 375.136 390.125 377.345 382.286 377.333Z" fill="currentColor" />
</symbol>
<symbol id='checkBoxOff' viewBox="0 0 524 524" fill="none">
<path d="M465.778 0H58.2222C25.9089 0 0 25.9089 0 58.2222V465.778C0 481.219 6.13411 496.028 17.0529 506.947C27.9717 517.866 42.7807 524 58.2222 524H465.778C481.219 524 496.028 517.866 506.947 506.947C517.866 496.028 524 481.219 524 465.778V58.2222C524 42.7807 517.866 27.9717 506.947 17.0529C496.028 6.13411 481.219 0 465.778 0Z" fill="currentColor" />
</symbol>
<symbol id='checkBoxOn' viewBox="0 0 507 507" fill="none">
<path d="M429 0H78C57.32 0.0225817 37.4936 8.24767 22.8706 22.8706C8.24767 37.4936 0.0225817 57.32 0 78V429C0.0225817 449.68 8.24767 469.506 22.8706 484.129C37.4936 498.752 57.32 506.977 78 507H429C449.68 506.977 469.506 498.752 484.129 484.129C498.752 469.506 506.977 449.68 507 429V78C506.977 57.32 498.752 37.4936 484.129 22.8706C469.506 8.24767 449.68 0.0225817 429 0ZM385.43 168.541L221.63 363.541C219.833 365.681 217.597 367.41 215.074 368.611C212.551 369.811 209.799 370.456 207.005 370.5H206.676C203.942 370.499 201.24 369.923 198.744 368.811C196.247 367.698 194.013 366.073 192.185 364.041L121.985 286.041C120.202 284.15 118.815 281.921 117.906 279.487C116.996 277.052 116.583 274.461 116.689 271.864C116.796 269.267 117.42 266.718 118.526 264.366C119.632 262.014 121.197 259.907 123.129 258.169C125.061 256.43 127.32 255.096 129.775 254.243C132.23 253.39 134.831 253.037 137.425 253.204C140.018 253.371 142.552 254.054 144.878 255.214C147.203 256.374 149.273 257.988 150.967 259.959L206.164 321.287L355.57 143.459C358.922 139.584 363.663 137.184 368.77 136.777C373.877 136.37 378.938 137.989 382.861 141.284C386.784 144.579 389.252 149.286 389.733 154.386C390.213 159.486 388.668 164.571 385.43 168.541Z" fill="currentColor" />
</symbol>
<symbol id='close' viewBox="0 0 371 370" fill="none">
<path d="M7.73445 8.0647C12.6883 3.11234 19.4063 0.330256 26.411 0.330256C33.4158 0.330256 40.1337 3.11234 45.0876 8.0647L184.911 147.888L324.734 8.0647C327.171 5.54164 330.086 3.52916 333.309 2.14469C336.532 0.760215 339.999 0.0314774 343.506 0.000997415C347.014 -0.0294826 350.492 0.638899 353.739 1.96715C356.985 3.29541 359.935 5.25693 362.415 7.73726C364.895 10.2176 366.857 13.1671 368.185 16.4136C369.513 19.6601 370.182 23.1386 370.151 26.6462C370.121 30.1538 369.392 33.6202 368.008 36.8431C366.623 40.0661 364.611 42.981 362.088 45.4179L222.264 185.241L362.088 325.065C366.9 330.047 369.562 336.72 369.502 343.646C369.442 350.573 366.664 357.198 361.766 362.096C356.868 366.994 350.242 369.772 343.316 369.832C336.39 369.893 329.717 367.23 324.734 362.418L184.911 222.594L45.0876 362.418C40.1054 367.23 33.4325 369.893 26.5061 369.832C19.5797 369.772 12.9541 366.994 8.05623 362.096C3.15837 357.198 0.380151 350.573 0.319962 343.646C0.259774 336.72 2.92244 330.047 7.73445 325.065L147.558 185.241L7.73445 45.4179C2.78209 40.464 0 33.746 0 26.7413C0 19.7365 2.78209 13.0186 7.73445 8.0647Z" fill="currentColor" />
</symbol>
<symbol id='edit' viewBox="0 0 375 375" fill="none">
<path d="M20.8333 375C14.9306 375 9.98611 373 6 369C2.01389 365 0.0138889 360.056 0 354.167V303.646C0 298.09 1.04167 292.792 3.125 287.75C5.20834 282.708 8.15972 278.285 11.9792 274.479L275 11.9792C279.167 8.15972 283.771 5.20834 288.813 3.125C293.854 1.04167 299.146 0 304.688 0C310.229 0 315.611 1.04167 320.833 3.125C326.056 5.20834 330.569 8.33333 334.375 12.5L363.021 41.6667C367.187 45.4861 370.222 50 372.125 55.2083C374.028 60.4167 374.986 65.625 375 70.8333C375 76.3889 374.042 81.6875 372.125 86.7292C370.208 91.7708 367.174 96.3681 363.021 100.521L100.521 363.021C96.7014 366.84 92.2708 369.792 87.2292 371.875C82.1875 373.958 76.8958 375 71.3542 375H20.8333ZM304.167 100L333.333 70.8333L304.167 41.6667L275 70.8333L304.167 100Z" fill="currentColor" />
</symbol>
<symbol id='email' viewBox="0 0 227 227" fill="none">
<path d="M189.167 37.8334H37.8332C27.429 37.8334 19.0111 46.3459 19.0111 56.75L18.9165 170.25C18.9165 180.654 27.429 189.167 37.8332 189.167H189.167C199.571 189.167 208.083 180.654 208.083 170.25V56.75C208.083 46.3459 199.571 37.8334 189.167 37.8334ZM189.167 75.6667L113.5 122.958L37.8332 75.6667V56.75L113.5 104.042L189.167 56.75V75.6667Z" fill="currentColor" />
</symbol>
<symbol id='exit' viewBox="0 0 500 500" fill="none">
<path d="M250 52.0833C258.288 52.0833 266.236 55.3757 272.097 61.2362C277.957 67.0967 281.25 75.0452 281.25 83.3333C281.25 91.6213 277.957 99.5698 272.097 105.43C266.236 111.291 258.288 114.583 250 114.583H145.833C143.07 114.583 140.421 115.681 138.467 117.634C136.514 119.588 135.417 122.237 135.417 125V375C135.417 377.763 136.514 380.412 138.467 382.366C140.421 384.319 143.07 385.417 145.833 385.417H239.583C247.871 385.417 255.82 388.709 261.68 394.57C267.541 400.43 270.833 408.379 270.833 416.667C270.833 424.955 267.541 432.903 261.68 438.764C255.82 444.624 247.871 447.917 239.583 447.917H145.833C126.494 447.917 107.948 440.234 94.2733 426.56C80.5988 412.885 72.9165 394.339 72.9165 375V125C72.9165 105.661 80.5988 87.1146 94.2733 73.44C107.948 59.7655 126.494 52.0833 145.833 52.0833H250ZM376.25 168.958L435.187 227.917C441.039 233.776 444.326 241.719 444.326 250C444.326 258.281 441.039 266.224 435.187 272.083L376.271 331.042C370.408 336.904 362.457 340.197 354.166 340.197C345.876 340.197 337.925 336.904 332.062 331.042C326.2 325.179 322.906 317.228 322.906 308.937C322.906 300.647 326.2 292.696 332.062 286.833L337.646 281.25H250C241.712 281.25 233.763 277.958 227.903 272.097C222.042 266.237 218.75 258.288 218.75 250C218.75 241.712 222.042 233.763 227.903 227.903C233.763 222.042 241.712 218.75 250 218.75H337.646L332.062 213.167C329.161 210.264 326.86 206.818 325.29 203.026C323.72 199.234 322.913 195.17 322.914 191.065C322.915 186.961 323.724 182.898 325.296 179.106C326.867 175.315 329.17 171.87 332.073 168.969C334.975 166.067 338.421 163.766 342.213 162.196C346.006 160.627 350.07 159.819 354.174 159.82C358.278 159.821 362.342 160.63 366.133 162.202C369.925 163.773 373.369 166.076 376.271 168.979L376.25 168.958Z" fill="currentColor" />
</symbol>
<symbol id='eye' viewBox="0 0 500 500" fill="none">
	<path
		d="M250 187.5C233.424 187.5 217.527 194.085 205.805 205.806C194.084 217.527 187.5 233.424 187.5 250C187.5 266.576 194.084 282.473 205.805 294.194C217.527 305.915 233.424 312.5 250 312.5C266.576 312.5 282.473 305.915 294.194 294.194C305.915 282.473 312.5 266.576 312.5 250C312.5 233.424 305.915 217.527 294.194 205.806C282.473 194.085 266.576 187.5 250 187.5ZM250 354.167C222.373 354.167 195.878 343.192 176.343 323.657C156.808 304.122 145.833 277.627 145.833 250C145.833 222.373 156.808 195.878 176.343 176.343C195.878 156.808 222.373 145.833 250 145.833C277.626 145.833 304.122 156.808 323.657 176.343C343.192 195.878 354.166 222.373 354.166 250C354.166 277.627 343.192 304.122 323.657 323.657C304.122 343.192 277.626 354.167 250 354.167ZM250 93.75C145.833 93.75 56.8747 158.542 20.833 250C56.8747 341.458 145.833 406.25 250 406.25C354.166 406.25 443.125 341.458 479.166 250C443.125 158.542 354.166 93.75 250 93.75Z"
		fill="currentColor" />
</symbol>
<symbol id='eye_off' viewBox="0 0 500 500" fill="none">
	<path
		d="M246.459 187.5L312.501 253.333V250C312.501 233.424 305.916 217.527 294.195 205.806C282.474 194.085 266.577 187.5 250.001 187.5H246.459ZM156.876 204.167L189.167 236.458C188.126 240.833 187.501 245.208 187.501 250C187.501 266.576 194.085 282.473 205.806 294.194C217.527 305.915 233.425 312.5 250.001 312.5C254.584 312.5 259.167 311.875 263.542 310.833L295.834 343.125C281.876 350 266.459 354.167 250.001 354.167C222.374 354.167 195.879 343.192 176.344 323.657C156.809 304.122 145.834 277.627 145.834 250C145.834 233.542 150.001 218.125 156.876 204.167ZM41.6673 88.9583L89.1673 136.458L98.5423 145.833C64.1673 172.917 37.084 208.333 20.834 250C56.8757 341.458 145.834 406.25 250.001 406.25C282.292 406.25 313.126 400 341.251 388.75L350.209 397.5L411.042 458.333L437.501 431.875L68.1257 62.5M250.001 145.833C277.627 145.833 304.123 156.808 323.658 176.343C343.193 195.878 354.167 222.373 354.167 250C354.167 263.333 351.459 276.25 346.667 287.917L407.709 348.958C438.959 322.917 463.959 288.75 479.167 250C443.126 158.542 354.167 93.75 250.001 93.75C220.834 93.75 192.917 98.9583 166.667 108.333L211.876 153.125C223.751 148.542 236.459 145.833 250.001 145.833Z"
		fill="currentColor" />
</symbol>
<symbol id='filter' viewBox="0 0 557 627" fill="none">
<path fill-rule="evenodd" clip-rule="evenodd" d="M348.115 587.907V313.457H349.16L549.652 56.4223C555.304 49.1616 557.855 39.9574 556.746 30.8209C555.637 21.6844 550.959 13.3584 543.734 7.66229C537.121 2.78629 529.811 0 522.154 0H34.8462C27.1885 0 19.8789 2.78629 13.2655 7.66229C6.04061 13.3584 1.36271 21.6844 0.253941 30.8209C-0.854827 39.9574 1.69569 49.1616 7.34817 56.4223L207.84 313.457H208.885V517.901C208.228 523.172 208.798 528.524 210.549 533.538C212.3 538.552 215.185 543.094 218.979 546.809L288.942 616.815C292.162 620.043 295.987 622.605 300.198 624.353C304.409 626.1 308.923 627 313.482 627C318.04 627 322.554 626.1 326.765 624.353C330.976 622.605 334.801 620.043 338.021 616.815C346.027 609.501 349.508 598.355 348.115 587.907Z" fill="currentColor" />
</symbol>
<symbol id='filterOff' viewBox="0 0 1037 1037" fill="none">
<path d="M518.5 0C229.621 0 0 229.621 0 518.5C0 807.379 229.621 1037 518.5 1037C807.379 1037 1037 807.379 1037 518.5C1037 229.621 807.379 0 518.5 0ZM518.5 962.929C274.064 962.929 74.0714 762.936 74.0714 518.5C74.0714 274.064 274.064 74.0714 518.5 74.0714C762.936 74.0714 962.929 274.064 962.929 518.5C962.929 762.936 762.936 962.929 518.5 962.929Z" fill="currentColor" /><path d="M448.885 686.279V722.901C448.228 728.172 448.798 733.524 450.549 738.538C452.3 743.552 455.185 748.094 458.979 751.809L528.942 821.815C532.162 825.043 535.987 827.605 540.198 829.353C544.409 831.1 548.923 832 553.482 832C558.04 832 562.554 831.1 566.765 829.353C570.976 827.605 574.801 825.043 578.021 821.815C586.027 814.501 589.508 803.355 588.115 792.907V520.352L448.885 686.279Z" fill="currentColor" /><path d="M710.825 205H274.846C267.188 205 259.879 207.786 253.266 212.662C246.041 218.358 241.363 226.684 240.254 235.821C239.145 244.957 241.696 254.162 247.348 261.422L447.822 518.434L710.825 205Z" fill="currentColor" /><path d="M242 886L203.698 853.861L793.777 150.632L832.079 182.771L242 886Z" fill="currentColor" />
</symbol>
<symbol id='link' viewBox="0 0 247 247" fill="none">
<path d="M123.5 42.125H42.125C34.931 42.125 28.0317 44.9828 22.9447 50.0697C17.8578 55.1567 15 62.056 15 69.25V204.875C15 212.069 17.8578 218.968 22.9447 224.055C28.0317 229.142 34.931 232 42.125 232H177.75C184.944 232 191.843 229.142 196.93 224.055C202.017 218.968 204.875 212.069 204.875 204.875V123.5M109.938 137.062L232 15M232 15H164.188M232 15V82.8125" stroke="currentColor" stroke-width="30" stroke-linecap="round" stroke-linejoin="round" />
</symbol>
<symbol id='moon' viewBox="0 0 227 227" fill="none">
<path d="M117.047 212.813C89.7669 212.813 63.6042 201.976 44.3143 182.686C25.0244 163.396 14.1875 137.233 14.1875 109.953C14.1875 68.2775 38.1289 30.9111 75.1982 14.7773C76.5046 14.2079 77.9523 14.0452 79.3525 14.3105C80.7528 14.5757 82.0407 15.2565 83.0484 16.2642C84.0561 17.272 84.7369 18.5599 85.0022 19.9601C85.2674 21.3603 85.1047 22.808 84.5353 24.1144C80.2791 33.8861 78.0312 46.4021 78.0312 60.297C78.0312 109.191 117.809 148.969 166.703 148.969C180.598 148.969 193.114 146.721 202.886 142.465C204.192 141.895 205.64 141.733 207.04 141.998C208.44 142.263 209.728 142.944 210.736 143.952C211.744 144.959 212.424 146.247 212.69 147.648C212.955 149.048 212.792 150.495 212.223 151.802C196.089 188.871 158.723 212.813 117.047 212.813Z" fill="currentColor" />
</symbol>
<symbol id='padlock' viewBox="0 0 304 380" fill="none">
<path d="M247 133V95C247 41.8 205.2 0 152 0C98.8 0 57 41.8 57 95V133C24.7 133 0 157.7 0 190V323C0 355.3 24.7 380 57 380H247C279.3 380 304 355.3 304 323V190C304 157.7 279.3 133 247 133ZM95 95C95 62.7 119.7 38 152 38C184.3 38 209 62.7 209 95V133H95V95ZM172.9 256.5L171 258.4V285C171 296.4 163.4 304 152 304C140.6 304 133 296.4 133 285V258.4C121.6 247 119.7 229.9 131.1 218.5C142.5 207.1 159.6 205.2 171 216.6C182.4 226.1 184.3 245.1 172.9 256.5Z" fill="currentColor" />
</symbol>
<symbol id='password' viewBox="0 0 308 165" fill="none">
<path d="M28.0001 136.15H280C283.967 136.15 287.294 137.494 289.982 140.182C292.67 142.87 294.009 146.193 294 150.15C293.991 154.107 292.647 157.435 289.968 160.132C287.289 162.829 283.967 164.169 280 164.15H28.0001C24.0334 164.15 20.7107 162.806 18.0321 160.118C15.3534 157.43 14.0094 154.107 14.0001 150.15C13.9907 146.193 15.3347 142.87 18.0321 140.182C20.7294 137.494 24.0521 136.15 28.0001 136.15ZM42.0001 58.45L35.3501 70.35C33.9501 72.9167 31.8501 74.55 29.0501 75.25C26.2501 75.95 23.5667 75.6 21.0001 74.2C18.4334 72.8 16.8001 70.7 16.1001 67.9C15.4001 65.1 15.7501 62.4167 17.1501 59.85L23.8001 47.95H10.5001C7.46673 47.95 4.96073 46.9607 2.98207 44.982C1.0034 43.0033 0.00939845 40.4927 6.51162e-05 37.45C-0.00926822 34.4073 0.984733 31.9013 2.98207 29.932C4.9794 27.9627 7.4854 26.9687 10.5001 26.95H23.8001L17.1501 15.75C15.7501 13.1833 15.4001 10.5 16.1001 7.7C16.8001 4.9 18.4334 2.8 21.0001 1.4C23.5667 -1.98185e-06 26.2501 -0.349999 29.0501 0.350001C31.8501 1.05 33.9501 2.68333 35.3501 5.25L42.0001 16.45L48.6501 5.25C50.0501 2.68333 52.1501 1.05 54.9501 0.350001C57.7501 -0.349999 60.4334 -1.98185e-06 63.0001 1.4C65.5667 2.8 67.2001 4.9 67.9001 7.7C68.6001 10.5 68.2501 13.1833 66.8501 15.75L60.2001 26.95H73.5001C76.5334 26.95 79.0441 27.944 81.0321 29.932C83.0201 31.92 84.0094 34.426 84.0001 37.45C83.9907 40.474 82.9967 42.9847 81.0181 44.982C79.0394 46.9793 76.5334 47.9687 73.5001 47.95H60.2001L66.8501 59.85C68.2501 62.4167 68.6001 65.1 67.9001 67.9C67.2001 70.7 65.5667 72.8 63.0001 74.2C60.4334 75.6 57.7501 75.95 54.9501 75.25C52.1501 74.55 50.0501 72.9167 48.6501 70.35L42.0001 58.45ZM154 58.45L147.35 70.35C145.95 72.9167 143.85 74.55 141.05 75.25C138.25 75.95 135.567 75.6 133 74.2C130.433 72.8 128.8 70.7 128.1 67.9C127.4 65.1 127.75 62.4167 129.15 59.85L135.8 47.95H122.5C119.467 47.95 116.961 46.9607 114.982 44.982C113.003 43.0033 112.009 40.4927 112 37.45C111.991 34.4073 112.985 31.9013 114.982 29.932C116.979 27.9627 119.485 26.9687 122.5 26.95H135.8L129.15 15.75C127.75 13.1833 127.4 10.5 128.1 7.7C128.8 4.9 130.433 2.8 133 1.4C135.567 -1.98185e-06 138.25 -0.349999 141.05 0.350001C143.85 1.05 145.95 2.68333 147.35 5.25L154 16.45L160.65 5.25C162.05 2.68333 164.15 1.05 166.95 0.350001C169.75 -0.349999 172.433 -1.98185e-06 175 1.4C177.567 2.8 179.2 4.9 179.9 7.7C180.6 10.5 180.25 13.1833 178.85 15.75L172.2 26.95H185.5C188.533 26.95 191.039 27.944 193.018 29.932C194.997 31.92 195.991 34.426 196 37.45C196.009 40.474 195.015 42.9847 193.018 44.982C191.021 46.9793 188.515 47.9687 185.5 47.95H172.2L178.85 59.85C180.25 62.4167 180.6 65.1 179.9 67.9C179.2 70.7 177.567 72.8 175 74.2C172.433 75.6 169.75 75.95 166.95 75.25C164.15 74.55 162.05 72.9167 160.65 70.35L154 58.45ZM266 58.45L259.35 70.35C257.95 72.9167 255.85 74.55 253.05 75.25C250.25 75.95 247.567 75.6 245 74.2C242.433 72.8 240.8 70.7 240.1 67.9C239.4 65.1 239.75 62.4167 241.15 59.85L247.8 47.95H234.5C231.467 47.95 228.961 46.9607 226.982 44.982C225.003 43.0033 224.009 40.4927 224 37.45C223.991 34.4073 224.985 31.9013 226.982 29.932C228.979 27.9627 231.485 26.9687 234.5 26.95H247.8L241.15 15.75C239.75 13.1833 239.4 10.5 240.1 7.7C240.8 4.9 242.433 2.8 245 1.4C247.567 -1.98185e-06 250.25 -0.349999 253.05 0.350001C255.85 1.05 257.95 2.68333 259.35 5.25L266 16.45L272.65 5.25C274.05 2.68333 276.15 1.05 278.95 0.350001C281.75 -0.349999 284.433 -1.98185e-06 287 1.4C289.567 2.8 291.2 4.9 291.9 7.7C292.6 10.5 292.25 13.1833 290.85 15.75L284.2 26.95H297.5C300.533 26.95 303.044 27.944 305.032 29.932C307.02 31.92 308.009 34.426 308 37.45C307.991 40.474 306.997 42.9847 305.018 44.982C303.039 46.9793 300.533 47.9687 297.5 47.95H284.2L290.85 59.85C292.25 62.4167 292.6 65.1 291.9 67.9C291.2 70.7 289.567 72.8 287 74.2C284.433 75.6 281.75 75.95 278.95 75.25C276.15 74.55 274.05 72.9167 272.65 70.35L266 58.45Z" fill="currentColor" />
</symbol>
<symbol id='profile' viewBox="0 0 500 500" fill="none">
<path fill-rule="evenodd" clip-rule="evenodd" d="M250 2.74684e-09C282.83 -0.000153891 315.339 6.46616 345.671 19.0297C376.002 31.5933 403.562 50.0082 426.777 73.2228C449.992 96.4374 468.406 123.997 480.97 154.329C493.534 184.66 500 217.169 500 250C500 388.071 388.071 500 250 500C111.929 500 0 388.071 0 250C0 111.929 111.929 2.74684e-09 250 2.74684e-09ZM275 275H225C163.107 275 109.971 312.485 87.0527 365.994C123.315 416.843 182.786 450 250 450C317.214 450 376.684 416.843 412.948 365.991C390.029 312.485 336.893 275 275 275ZM250 75C208.579 75 175 108.579 175 150C175 191.421 208.579 225 250 225C291.421 225 325 191.421 325 150C325 108.579 291.422 75 250 75Z" fill="currentColor" />
</symbol>
<symbol id='rol' viewBox="0 0 500 500" fill="none">
<path d="M250 250H395.833C384.792 335.625 327.5 412.084 250 435.834V250ZM250 250H104.167V131.25L250 66.4585M250 20.8335L62.5 104.167V229.167C62.5 344.792 142.5 452.709 250 479.167C357.5 452.709 437.5 344.792 437.5 229.167V104.167L250 20.8335Z" fill="currentColor" />
</symbol>
<symbol id='search' viewBox="0 0 500 500" fill="none">
<path d="M197.917 333.333C160.069 333.333 128.042 320.222 101.833 294C75.625 267.778 62.5139 235.75 62.5 197.917C62.4861 160.083 75.5972 128.056 101.833 101.833C128.069 75.6111 160.097 62.5 197.917 62.5C235.736 62.5 267.771 75.6111 294.021 101.833C320.271 128.056 333.375 160.083 333.333 197.917C333.333 213.194 330.903 227.604 326.042 241.146C321.181 254.687 314.583 266.667 306.25 277.083L422.917 393.75C426.736 397.569 428.646 402.431 428.646 408.333C428.646 414.236 426.736 419.097 422.917 422.917C419.097 426.736 414.236 428.646 408.333 428.646C402.431 428.646 397.569 426.736 393.75 422.917L277.083 306.25C266.667 314.583 254.688 321.181 241.146 326.042C227.604 330.903 213.194 333.333 197.917 333.333ZM197.917 291.667C223.958 291.667 246.097 282.556 264.333 264.333C282.569 246.111 291.681 223.972 291.667 197.917C291.653 171.861 282.542 149.729 264.333 131.521C246.125 113.313 223.986 104.194 197.917 104.167C171.847 104.139 149.715 113.257 131.521 131.521C113.326 149.785 104.208 171.917 104.167 197.917C104.125 223.917 113.243 246.056 131.521 264.333C149.799 282.611 171.931 291.722 197.917 291.667Z" fill="currentColor" />
</symbol>
<symbol id='shield' viewBox="0 0 227 227" fill="none">
<path d="M113.5 208.083C91.5879 202.566 73.4972 189.993 59.2278 170.363C44.9583 150.734 37.8267 128.942 37.833 104.987V47.2916L113.5 18.9166L189.166 47.2916V104.987C189.166 128.949 182.035 150.744 167.772 170.373C153.508 190.002 135.418 202.572 113.5 208.083Z" fill="currentColor" />
</symbol>
<symbol id='spinner' viewBox="0 0 24 24" fill="none">
  <circle cx="12" cy="12" r="10" stroke="currentColor" stroke-width="3" stroke-linecap="round" stroke-dasharray="31.4 31.4">
    <animateTransform 
      attributeName="transform" 
      type="rotate" 
      from="0 12 12" 
      to="360 12 12" 
      dur="1s" 
      repeatCount="indefinite" />
  </circle>
</symbol>
<symbol id='sun' viewBox="0 0 227 227" fill="none">
<path d="M113.5 75.6664C123.534 75.6664 133.157 79.6525 140.252 86.7475C147.347 93.8426 151.333 103.466 151.333 113.5C151.333 123.534 147.347 133.157 140.252 140.252C133.157 147.347 123.534 151.333 113.5 151.333C103.466 151.333 93.8432 147.347 86.7481 140.252C79.6531 133.157 75.6671 123.534 75.6671 113.5C75.6671 103.466 79.653 93.8426 86.7481 86.7475C93.8432 79.6526 103.466 75.6664 113.5 75.6664Z" fill="currentColor" /><path fill-rule="evenodd" clip-rule="evenodd" d="M144.62 24.2475C146.214 24.0501 147.832 24.2619 149.321 24.8627C150.811 25.4636 152.122 26.4339 153.133 27.682C154.144 28.9302 154.82 30.4156 155.098 31.9975L159.761 58.5941C160.1 60.5387 161.04 62.3283 162.447 63.7123C163.855 65.0964 165.661 66.0057 167.611 66.3119L194.293 70.4828C195.881 70.732 197.379 71.3819 198.646 72.3705C199.912 73.3591 200.907 74.6539 201.534 76.1332C202.162 77.6125 202.401 79.2277 202.232 80.8256C202.062 82.4233 201.488 83.9516 200.565 85.266L185.053 107.361C183.919 108.977 183.319 110.908 183.338 112.882C183.357 114.857 183.992 116.776 185.156 118.371L201.065 140.191C202.012 141.489 202.611 143.006 202.809 144.6C203.006 146.194 202.795 147.812 202.194 149.301C201.594 150.791 200.623 152.103 199.375 153.114C198.127 154.124 196.641 154.801 195.06 155.079L168.463 159.742C166.516 160.079 164.724 161.017 163.338 162.425C161.952 163.833 161.042 165.64 160.735 167.591L156.573 194.264C156.325 195.852 155.678 197.352 154.69 198.62C153.702 199.887 152.406 200.883 150.927 201.511C149.447 202.14 147.832 202.38 146.233 202.211C144.635 202.042 143.105 201.469 141.79 200.544L119.695 185.033C118.08 183.897 116.15 183.296 114.176 183.313C112.201 183.33 110.281 183.964 108.686 185.127L86.8653 201.045C85.5668 201.992 84.0487 202.592 82.4542 202.788C80.8598 202.985 79.2415 202.773 77.752 202.171C76.2624 201.569 74.9507 200.597 73.9405 199.348C72.9305 198.099 72.2553 196.613 71.9786 195.031L67.3155 168.433C66.9743 166.49 66.0335 164.703 64.626 163.321C63.2184 161.939 61.4139 161.031 59.4649 160.725L32.7921 156.544C31.2054 156.296 29.7081 155.647 28.4415 154.66C27.1748 153.672 26.1802 152.378 25.5518 150.9C24.9237 149.422 24.6818 147.808 24.8497 146.211C25.0176 144.614 25.5898 143.085 26.5118 141.77L42.0235 119.666C43.1588 118.051 43.7602 116.12 43.7432 114.146C43.7262 112.172 43.0916 110.252 41.9288 108.657L26.0108 86.8461C25.0646 85.5477 24.4646 84.0294 24.2676 82.435C24.0707 80.8404 24.2829 79.2215 24.8848 77.7318C25.4868 76.2422 26.4587 74.9305 27.7081 73.9203C28.9574 72.9102 30.4438 72.235 32.0264 71.9584L58.6231 67.2953C60.5674 66.9536 62.356 66.0123 63.7383 64.6029C65.1206 63.1935 66.0272 61.3865 66.3311 59.4359L70.5118 32.7631C70.7604 31.1764 71.4092 29.6792 72.3966 28.4125C73.384 27.1458 74.6782 26.1512 76.1563 25.5229C77.6344 24.8946 79.2485 24.6528 80.8458 24.8207C82.443 24.9887 83.9712 25.5609 85.2862 26.4828L107.39 41.9945C109.005 43.1299 110.936 43.7312 112.91 43.7143C114.885 43.6973 116.804 43.0627 118.399 41.8998L140.211 25.9906C141.509 25.0447 143.026 24.4449 144.62 24.2475ZM113.5 66.2074C100.958 66.2075 88.9285 71.1901 80.0596 80.059C71.1908 88.9279 66.2091 100.957 66.2091 113.499C66.2091 126.042 71.1908 138.071 80.0596 146.94C88.9285 155.809 100.958 160.791 113.5 160.791C126.043 160.791 138.072 155.809 146.94 146.94C155.809 138.071 160.792 126.042 160.792 113.499C160.792 100.957 155.809 88.9279 146.94 80.059C138.072 71.1901 126.043 66.2074 113.5 66.2074Z" fill="currentColor" />
</symbol>
<symbol id='user' viewBox="0 0 227 227" fill="none">
<path d="M113.5 37.8334C123.534 37.8334 133.157 41.8194 140.252 48.9145C147.347 56.0096 151.333 65.6327 151.333 75.6667C151.333 85.7007 147.347 95.3238 140.252 102.419C133.157 109.514 123.534 113.5 113.5 113.5C103.466 113.5 93.8431 109.514 86.748 102.419C79.6528 95.3238 75.6668 85.7007 75.6668 75.6667C75.6668 65.6327 79.6528 56.0096 86.748 48.9145C93.8431 41.8194 103.466 37.8334 113.5 37.8334ZM113.5 132.417C155.306 132.417 189.167 149.347 189.167 170.25V189.167H37.8335V170.25C37.8335 149.347 71.6943 132.417 113.5 132.417Z" fill="currentColor" />
</symbol>
</svg>