<?xml version="1.0" encoding="utf-8"?>
<svg xmlns="http://www.w3.org/2000/svg">
<symbol id='qr' viewBox="0 0 375 375" fill="none"><path d="M0 145.833V20.8333C0 14.9306 2 9.98611 6 6C10 2.01389 14.9444 0.0138889 20.8333 0H145.833C151.736 0 156.688 2 160.688 6C164.688 10 166.681 14.9444 166.667 20.8333V145.833C166.667 151.736 164.667 156.688 160.667 160.688C156.667 164.688 151.722 166.681 145.833 166.667H20.8333C14.9306 166.667 9.98611 164.667 6 160.667C2.01389 156.667 0.0138889 151.722 0 145.833ZM41.6667 115C41.6667 120.523 46.1438 125 51.6667 125H115C120.523 125 125 120.523 125 115V51.6667C125 46.1438 120.523 41.6667 115 41.6667H51.6667C46.1438 41.6667 41.6667 46.1438 41.6667 51.6667V115ZM0 354.167V229.167C0 223.264 2 218.319 6 214.333C10 210.347 14.9444 208.347 20.8333 208.333H145.833C151.736 208.333 156.688 210.333 160.688 214.333C164.688 218.333 166.681 223.278 166.667 229.167V354.167C166.667 360.069 164.667 365.021 160.667 369.021C156.667 373.021 151.722 375.014 145.833 375H20.8333C14.9306 375 9.98611 373 6 369C2.01389 365 0.0138889 360.056 0 354.167ZM41.6667 323.333C41.6667 328.856 46.1438 333.333 51.6667 333.333H115C120.523 333.333 125 328.856 125 323.333V260C125 254.477 120.523 250 115 250H51.6667C46.1438 250 41.6667 254.477 41.6667 260V323.333ZM208.333 145.833V20.8333C208.333 14.9306 210.333 9.98611 214.333 6C218.333 2.01389 223.278 0.0138889 229.167 0H354.167C360.069 0 365.021 2 369.021 6C373.021 10 375.014 14.9444 375 20.8333V145.833C375 151.736 373 156.688 369 160.688C365 164.688 360.056 166.681 354.167 166.667H229.167C223.264 166.667 218.319 164.667 214.333 160.667C210.347 156.667 208.347 151.722 208.333 145.833ZM250 115C250 120.523 254.477 125 260 125H323.333C328.856 125 333.333 120.523 333.333 115V51.6667C333.333 46.1438 328.856 41.6667 323.333 41.6667H260C254.477 41.6667 250 46.1438 250 51.6667V115ZM343.333 375C337.811 375 333.333 370.523 333.333 365V333.333H365C370.523 333.333 375 337.81 375 343.333V365C375 370.523 370.523 375 365 375H343.333ZM218.333 250C212.811 250 208.333 245.523 208.333 240V218.333C208.333 212.811 212.81 208.333 218.333 208.333H240C245.523 208.333 250 212.81 250 218.333V250H218.333ZM250 291.667V250H291.667V291.667H250ZM218.333 333.333C212.811 333.333 208.333 328.856 208.333 323.333V301.667C208.333 296.144 212.81 291.667 218.333 291.667H250V333.333H218.333ZM260 375C254.477 375 250 370.523 250 365V333.333H291.667V365C291.667 370.523 287.19 375 281.667 375H260ZM291.667 333.333V291.667H333.333V333.333H291.667ZM291.667 250V218.333C291.667 212.811 296.144 208.333 301.667 208.333H323.333C328.856 208.333 333.333 212.81 333.333 218.333V250H291.667ZM333.333 291.667V250H365C370.523 250 375 254.477 375 260V281.667C375 287.19 370.523 291.667 365 291.667H333.333Z" fill="currentColor"/></symbol>
</svg>